<svg width="22" height="22" viewBox="0 0 22 22" fill="none" xmlns="http://www.w3.org/2000/svg">
<path d="M19.5938 11C19.5938 11.2735 19.4851 11.5358 19.2917 11.7292C19.0983 11.9226 18.836 12.0312 18.5625 12.0312H3.4375C3.164 12.0312 2.90169 11.9226 2.7083 11.7292C2.5149 11.5358 2.40625 11.2735 2.40625 11C2.40625 10.7265 2.5149 10.4642 2.7083 10.2708C2.90169 10.0774 3.164 9.96875 3.4375 9.96875H18.5625C18.836 9.96875 19.0983 10.0774 19.2917 10.2708C19.4851 10.4642 19.5938 10.7265 19.5938 11ZM3.4375 6.53125H18.5625C18.836 6.53125 19.0983 6.4226 19.2917 6.2292C19.4851 6.03581 19.5938 5.7735 19.5938 5.5C19.5938 5.2265 19.4851 4.96419 19.2917 4.7708C19.0983 4.5774 18.836 4.46875 18.5625 4.46875H3.4375C3.164 4.46875 2.90169 4.5774 2.7083 4.7708C2.5149 4.96419 2.40625 5.2265 2.40625 5.5C2.40625 5.7735 2.5149 6.03581 2.7083 6.2292C2.90169 6.4226 3.164 6.53125 3.4375 6.53125ZM18.5625 15.4688H3.4375C3.164 15.4688 2.90169 15.5774 2.7083 15.7708C2.5149 15.9642 2.40625 16.2265 2.40625 16.5C2.40625 16.7735 2.5149 17.0358 2.7083 17.2292C2.90169 17.4226 3.164 17.5312 3.4375 17.5312H18.5625C18.836 17.5312 19.0983 17.4226 19.2917 17.2292C19.4851 17.0358 19.5938 16.7735 19.5938 16.5C19.5938 16.2265 19.4851 15.9642 19.2917 15.7708C19.0983 15.5774 18.836 15.4688 18.5625 15.4688Z" fill="#ABABAB"/>
</svg>
