<svg width="44" height="42" viewBox="0 0 44 42" fill="none" xmlns="http://www.w3.org/2000/svg">
<path d="M43 11.4762C43 10.0553 43 18.1867 43 36.0438C43 37.6891 42.3091 40.9796 39.5456 40.9796C40.3681 40.9796 35.3017 40.9796 8.45623 40.9796C5.98882 41.1441 1.05399 40.3873 1.05399 36.0438C1.05399 37.2134 1.05399 35.1804 1.05399 21.2366M43 11.4762C43 11.8776 43 17.9352 43 18.7687V11.4762ZM43 11.4762C43 9.50189 41.5 8.73205 41.5 8.73205H36.5847M1.05399 21.2366C1.05399 17.5273 1.05399 12.9753 1.05399 7.41647C0.725004 5.27765 1.74487 1 8.45623 1C26.2216 1 29.676 1 29.1825 1C35.4991 1 36.7492 5.27765 36.5847 7.41647V8.73205M1.05399 21.2366C1.05399 18.9332 2.05215 8.73205 6 8.73205H36.5847" stroke="#ABABAB"/>
</svg>
